<mxfile host="app.diagrams.net" agent="Mozilla/5.0 (Windows NT 10.0; Win64; x64) AppleWebKit/537.36 (KHTML, like Gecko) Chrome/137.0.0.0 Safari/537.36" version="27.1.1">
  <diagram name="Page-1" id="m6IvkxafJVyiMRKjtM1l">
    <mxGraphModel dx="1783" dy="971" grid="1" gridSize="10" guides="1" tooltips="1" connect="1" arrows="1" fold="1" page="1" pageScale="1" pageWidth="827" pageHeight="1169" math="0" shadow="0">
      <root>
        <mxCell id="0" />
        <mxCell id="1" parent="0" />
        <mxCell id="5JrZumqOlgSCRimCzZLD-1" value="Admin" style="shape=umlActor;verticalLabelPosition=bottom;verticalAlign=top;html=1;outlineConnect=0;" parent="1" vertex="1">
          <mxGeometry x="70" y="280" width="30" height="60" as="geometry" />
        </mxCell>
        <mxCell id="5JrZumqOlgSCRimCzZLD-2" value="" style="rounded=0;whiteSpace=wrap;html=1;" parent="1" vertex="1">
          <mxGeometry x="130" y="40" width="680" height="750" as="geometry" />
        </mxCell>
        <mxCell id="5JrZumqOlgSCRimCzZLD-18" style="edgeStyle=orthogonalEdgeStyle;rounded=0;orthogonalLoop=1;jettySize=auto;html=1;entryX=0;entryY=0.5;entryDx=0;entryDy=0;" parent="1" target="5JrZumqOlgSCRimCzZLD-4" edge="1">
          <mxGeometry relative="1" as="geometry">
            <mxPoint x="80" y="365" as="sourcePoint" />
            <mxPoint x="299.89592359914354" y="546.7157287525383" as="targetPoint" />
            <Array as="points">
              <mxPoint x="80" y="550" />
            </Array>
          </mxGeometry>
        </mxCell>
        <mxCell id="5JrZumqOlgSCRimCzZLD-3" value="&lt;b&gt;&lt;font style=&quot;font-size: 18px;&quot;&gt;Authentification&lt;/font&gt;&lt;/b&gt;" style="ellipse;whiteSpace=wrap;html=1;" parent="1" vertex="1">
          <mxGeometry x="620" y="130" width="190" height="80" as="geometry" />
        </mxCell>
        <mxCell id="5JrZumqOlgSCRimCzZLD-4" value="Gestion des utilisateurs" style="ellipse;whiteSpace=wrap;html=1;" parent="1" vertex="1">
          <mxGeometry x="280" y="510" width="170" height="80" as="geometry" />
        </mxCell>
        <mxCell id="5JrZumqOlgSCRimCzZLD-5" value="Creation des comptes" style="ellipse;whiteSpace=wrap;html=1;" parent="1" vertex="1">
          <mxGeometry x="510" y="420" width="120" height="80" as="geometry" />
        </mxCell>
        <mxCell id="5JrZumqOlgSCRimCzZLD-6" value="modificaton" style="ellipse;whiteSpace=wrap;html=1;" parent="1" vertex="1">
          <mxGeometry x="560" y="500" width="120" height="80" as="geometry" />
        </mxCell>
        <mxCell id="5JrZumqOlgSCRimCzZLD-7" value="Suppression" style="ellipse;whiteSpace=wrap;html=1;" parent="1" vertex="1">
          <mxGeometry x="470" y="580" width="120" height="80" as="geometry" />
        </mxCell>
        <mxCell id="5JrZumqOlgSCRimCzZLD-8" value="Consultation" style="ellipse;whiteSpace=wrap;html=1;" parent="1" vertex="1">
          <mxGeometry x="340" y="650" width="120" height="80" as="geometry" />
        </mxCell>
        <mxCell id="5JrZumqOlgSCRimCzZLD-17" value="&amp;lt;&amp;lt;Include&amp;gt;&amp;gt;" style="endArrow=open;endSize=12;dashed=1;html=1;rounded=0;exitX=0.5;exitY=0;exitDx=0;exitDy=0;entryX=0;entryY=1;entryDx=0;entryDy=0;" parent="1" source="5JrZumqOlgSCRimCzZLD-4" target="5JrZumqOlgSCRimCzZLD-3" edge="1">
          <mxGeometry width="160" relative="1" as="geometry">
            <mxPoint x="590" y="410" as="sourcePoint" />
            <mxPoint x="750" y="410" as="targetPoint" />
          </mxGeometry>
        </mxCell>
        <mxCell id="qXVgx6mf-Nckg8aQ-ih--1" value="Gestion des roles" style="ellipse;whiteSpace=wrap;html=1;" vertex="1" parent="1">
          <mxGeometry x="200" y="120" width="120" height="80" as="geometry" />
        </mxCell>
        <mxCell id="qXVgx6mf-Nckg8aQ-ih--2" value="Modification" style="ellipse;whiteSpace=wrap;html=1;" vertex="1" parent="1">
          <mxGeometry x="370" y="180" width="90" height="70" as="geometry" />
        </mxCell>
        <mxCell id="qXVgx6mf-Nckg8aQ-ih--3" value="Ajout" style="ellipse;whiteSpace=wrap;html=1;" vertex="1" parent="1">
          <mxGeometry x="310" y="280" width="90" height="60" as="geometry" />
        </mxCell>
        <mxCell id="qXVgx6mf-Nckg8aQ-ih--4" value="Suppression" style="ellipse;whiteSpace=wrap;html=1;" vertex="1" parent="1">
          <mxGeometry x="230" y="320" width="90" height="60" as="geometry" />
        </mxCell>
        <mxCell id="qXVgx6mf-Nckg8aQ-ih--6" value="Extends" style="endArrow=block;endSize=16;endFill=0;html=1;rounded=0;entryX=0.413;entryY=0.986;entryDx=0;entryDy=0;entryPerimeter=0;exitX=0.5;exitY=0;exitDx=0;exitDy=0;" edge="1" parent="1" source="qXVgx6mf-Nckg8aQ-ih--4" target="qXVgx6mf-Nckg8aQ-ih--1">
          <mxGeometry width="160" relative="1" as="geometry">
            <mxPoint x="230" y="450" as="sourcePoint" />
            <mxPoint x="390" y="450" as="targetPoint" />
          </mxGeometry>
        </mxCell>
        <mxCell id="qXVgx6mf-Nckg8aQ-ih--7" value="Extends" style="endArrow=block;endSize=16;endFill=0;html=1;rounded=0;entryX=0.629;entryY=0.98;entryDx=0;entryDy=0;entryPerimeter=0;exitX=0.5;exitY=0;exitDx=0;exitDy=0;" edge="1" parent="1" source="qXVgx6mf-Nckg8aQ-ih--3" target="qXVgx6mf-Nckg8aQ-ih--1">
          <mxGeometry width="160" relative="1" as="geometry">
            <mxPoint x="379" y="298" as="sourcePoint" />
            <mxPoint x="350" y="190" as="targetPoint" />
          </mxGeometry>
        </mxCell>
        <mxCell id="qXVgx6mf-Nckg8aQ-ih--8" value="Extends" style="endArrow=block;endSize=16;endFill=0;html=1;rounded=0;entryX=0.992;entryY=0.436;entryDx=0;entryDy=0;entryPerimeter=0;exitX=0;exitY=0;exitDx=0;exitDy=0;" edge="1" parent="1" source="qXVgx6mf-Nckg8aQ-ih--2" target="qXVgx6mf-Nckg8aQ-ih--1">
          <mxGeometry width="160" relative="1" as="geometry">
            <mxPoint x="389" y="218" as="sourcePoint" />
            <mxPoint x="360" y="110" as="targetPoint" />
          </mxGeometry>
        </mxCell>
        <mxCell id="qXVgx6mf-Nckg8aQ-ih--11" value="&amp;lt;&amp;lt;Include&amp;gt;&amp;gt;" style="endArrow=open;endSize=12;dashed=1;html=1;rounded=0;exitX=1;exitY=0;exitDx=0;exitDy=0;entryX=0;entryY=0.5;entryDx=0;entryDy=0;" edge="1" parent="1" source="qXVgx6mf-Nckg8aQ-ih--1" target="5JrZumqOlgSCRimCzZLD-3">
          <mxGeometry width="160" relative="1" as="geometry">
            <mxPoint x="450" y="372" as="sourcePoint" />
            <mxPoint x="623" y="90" as="targetPoint" />
          </mxGeometry>
        </mxCell>
        <mxCell id="qXVgx6mf-Nckg8aQ-ih--12" style="edgeStyle=orthogonalEdgeStyle;rounded=0;orthogonalLoop=1;jettySize=auto;html=1;entryX=0;entryY=0.5;entryDx=0;entryDy=0;" edge="1" parent="1" source="5JrZumqOlgSCRimCzZLD-1" target="qXVgx6mf-Nckg8aQ-ih--1">
          <mxGeometry relative="1" as="geometry" />
        </mxCell>
        <mxCell id="qXVgx6mf-Nckg8aQ-ih--13" value="&amp;lt;&amp;lt;Include&amp;gt;&amp;gt;" style="endArrow=open;endSize=12;dashed=1;html=1;rounded=0;exitX=0;exitY=0.5;exitDx=0;exitDy=0;entryX=1;entryY=0;entryDx=0;entryDy=0;" edge="1" parent="1" source="5JrZumqOlgSCRimCzZLD-5" target="5JrZumqOlgSCRimCzZLD-4">
          <mxGeometry width="160" relative="1" as="geometry">
            <mxPoint x="440" y="742" as="sourcePoint" />
            <mxPoint x="613" y="460" as="targetPoint" />
          </mxGeometry>
        </mxCell>
        <mxCell id="qXVgx6mf-Nckg8aQ-ih--14" value="&amp;lt;&amp;lt;Include&amp;gt;&amp;gt;" style="endArrow=open;endSize=12;dashed=1;html=1;rounded=0;exitX=0;exitY=0.5;exitDx=0;exitDy=0;entryX=1;entryY=0.5;entryDx=0;entryDy=0;" edge="1" parent="1" source="5JrZumqOlgSCRimCzZLD-6" target="5JrZumqOlgSCRimCzZLD-4">
          <mxGeometry width="160" relative="1" as="geometry">
            <mxPoint x="530" y="812" as="sourcePoint" />
            <mxPoint x="703" y="530" as="targetPoint" />
          </mxGeometry>
        </mxCell>
        <mxCell id="qXVgx6mf-Nckg8aQ-ih--15" value="&amp;lt;&amp;lt;Include&amp;gt;&amp;gt;" style="endArrow=open;endSize=12;dashed=1;html=1;rounded=0;entryX=1;entryY=1;entryDx=0;entryDy=0;" edge="1" parent="1" target="5JrZumqOlgSCRimCzZLD-4">
          <mxGeometry width="160" relative="1" as="geometry">
            <mxPoint x="470" y="620" as="sourcePoint" />
            <mxPoint x="623" y="590" as="targetPoint" />
          </mxGeometry>
        </mxCell>
        <mxCell id="qXVgx6mf-Nckg8aQ-ih--16" value="&amp;lt;&amp;lt;Include&amp;gt;&amp;gt;" style="endArrow=open;endSize=12;dashed=1;html=1;rounded=0;exitX=0.5;exitY=0;exitDx=0;exitDy=0;entryX=0.5;entryY=1;entryDx=0;entryDy=0;" edge="1" parent="1" source="5JrZumqOlgSCRimCzZLD-8" target="5JrZumqOlgSCRimCzZLD-4">
          <mxGeometry width="160" relative="1" as="geometry">
            <mxPoint x="360" y="882" as="sourcePoint" />
            <mxPoint x="533" y="600" as="targetPoint" />
          </mxGeometry>
        </mxCell>
      </root>
    </mxGraphModel>
  </diagram>
</mxfile>
